<svg width="40" height="40" viewBox="0 0 40 40" fill="none" xmlns="http://www.w3.org/2000/svg">
<path d="M34.1424 5.8582C30.5296 2.2418 25.5166 -0.00124948 20.0009 5.22176e-07C14.4845 -0.00124948 9.47094 2.2418 5.85813 5.8582C2.24234 9.47031 -0.00124948 14.484 5.22049e-07 19.9997C-0.00124948 25.5155 2.24234 30.5297 5.85813 34.1418C9.47031 37.7577 14.4845 40.0006 20.0009 40C25.516 40.0006 30.5296 37.7577 34.1424 34.1418C37.7577 30.5297 40.0012 25.5155 40 19.9997C40.0012 14.484 37.7577 9.47031 34.1424 5.8582ZM20.0003 23.4716C18.0257 23.471 16.4257 21.8711 16.4252 19.8965C16.4257 17.9219 18.0257 16.322 20.0003 16.3213C21.9748 16.322 23.5748 17.9219 23.5755 19.8965C23.5748 21.8711 21.9748 23.471 20.0003 23.4716ZM31.0645 31.0639C28.6352 33.4909 25.4285 35.1163 21.8425 35.5359C21.9967 26.9302 27.1706 24.0193 28.8179 23.2232C29.4299 22.9275 29.4822 22.2572 29.4822 22.2572L30.3238 16.532C30.3723 16.2034 30.286 15.869 30.0845 15.6048C29.8829 15.3407 29.663 15.1166 29.0025 15.0001C29.0025 15.0001 23.8838 13.9891 20.0002 13.9891C16.1178 13.9891 10.998 15.0001 10.998 15.0001C10.3373 15.1166 10.1176 15.3407 9.91594 15.6048C9.71438 15.869 9.62813 16.2034 9.67672 16.532L10.5195 22.2572C10.5195 22.2572 10.5705 22.9275 11.1826 23.2232C12.8299 24.0193 18.0037 26.9301 18.158 35.5352C14.5713 35.1156 11.3648 33.4902 8.93539 31.0638C6.52 28.646 4.89883 25.4559 4.46945 21.8886C4.70445 21.7592 5.04508 21.622 5.51992 21.5546C6.80234 21.373 8.93961 21.2565 8.93961 21.2565L8.37008 16.943C8.37008 16.943 5.83625 17.3966 4.60547 17.2059C5.18227 14.0048 6.72578 11.1473 8.93539 8.93531C11.774 6.10031 15.6728 4.35344 20.0009 4.35219C24.3277 4.35344 28.2259 6.10031 31.0645 8.93531C33.2741 11.1473 34.8176 14.0048 35.3945 17.2059C34.1637 17.3966 31.6316 16.943 31.6316 16.943L31.0609 21.2565C31.0609 21.2565 33.1982 21.373 34.4805 21.5546C34.9548 21.622 35.2954 21.7592 35.5304 21.888C35.1017 25.4559 33.4799 28.6455 31.0645 31.0639Z" fill="white"/>
<path d="M20.0003 17.5648C19.3549 17.5648 18.7756 17.8247 18.3518 18.2479C17.9285 18.6717 17.6687 19.2504 17.6687 19.8964C17.6687 20.5419 17.9285 21.1211 18.3518 21.545C18.7756 21.9681 19.355 22.2274 20.0003 22.2281C20.6457 22.2274 21.225 21.9681 21.6489 21.545C22.0721 21.1211 22.3314 20.5419 22.332 19.8964C22.3314 19.2503 22.0721 18.6717 21.6489 18.2479C21.225 17.8248 20.6457 17.5648 20.0003 17.5648Z" fill="white"/>
</svg>
