<svg width="40" height="40" viewBox="0 0 40 40" fill="none" xmlns="http://www.w3.org/2000/svg">
<path d="M22.5 36.25H10C7.25 36.25 5 34 5 31.25V8.75C5 6 7.25 3.75 10 3.75H22.5C25.25 3.75 27.5 6 27.5 8.75V31.25C27.5 34 25.25 36.25 22.5 36.25Z" stroke="white" stroke-width="2" stroke-miterlimit="10" stroke-linecap="round" stroke-linejoin="round"/>
<path d="M27.5 8L33.75 11.75C36.125 13.125 36.875 16.25 35.375 18.625L27.5 31.875" stroke="white" stroke-width="2" stroke-miterlimit="10" stroke-linecap="round" stroke-linejoin="round"/>
<path d="M35 20L35.625 20.875C37.25 23.125 36.625 26.25 34.375 27.875L27.25 32.875" stroke="white" stroke-width="2" stroke-miterlimit="10" stroke-linecap="round" stroke-linejoin="round"/>
<path d="M10 8.75V11.25" stroke="white" stroke-width="2" stroke-miterlimit="10" stroke-linecap="round" stroke-linejoin="round"/>
<path d="M22.5 28.75V31.25" stroke="white" stroke-width="2" stroke-miterlimit="10" stroke-linecap="round" stroke-linejoin="round"/>
<path d="M13 20.75C13.625 21.375 14.625 21.375 15.25 20.75L16.25 19.75L17.25 20.75C17.875 21.375 18.875 21.375 19.5 20.75C20.125 20.125 20.125 19 19.5 18.375L18.5 17.375L16.25 15L14 17.375L13 18.375C12.375 19 12.375 20.125 13 20.75Z" stroke="white" stroke-width="2" stroke-miterlimit="10" stroke-linecap="round" stroke-linejoin="round"/>
<path d="M15 25H17.5" stroke="white" stroke-width="2" stroke-miterlimit="10" stroke-linecap="round" stroke-linejoin="round"/>
<path d="M16.25 21.25V23.75" stroke="white" stroke-width="2" stroke-miterlimit="10" stroke-linecap="round" stroke-linejoin="round"/>
</svg>
