<svg width="48" height="48" viewBox="0 0 48 48" fill="none" xmlns="http://www.w3.org/2000/svg">
<g clip-path="url(#clip0_2060_2217)" filter="url(#filter0_d_2060_2217)">
<path d="M42.5135 13.0044L41.3278 12.7029V1.65034C41.3278 0.924471 40.7472 0.333984 40.0334 0.333984H38.6973C38.0903 0.333984 37.581 0.761674 37.4419 1.33595C32.3919 6.08011 25.0605 7.80747 21.3278 7.80747H9.97078C8.61117 7.80747 7.44133 8.64847 6.93711 9.84565H5.96242C4.88031 9.84573 4 10.741 4 11.8415V19.9944C4 21.0949 4.88031 21.9901 5.96242 21.9901H6.93711C7.44133 23.1873 8.61117 24.0283 9.97078 24.0283H10.1295L13.2107 39.069C12.9127 39.118 12.6848 39.3801 12.6848 39.697C12.6848 40.0488 12.9652 40.334 13.3111 40.334H21.9959C22.3417 40.334 22.6222 40.0488 22.6222 39.697C22.6222 39.3452 22.3418 39.0601 21.9959 39.0601H21.8371L18.7578 24.0282H21.3278C25.0606 24.0282 32.3919 25.7556 37.4419 30.4997C37.581 31.074 38.0903 31.5017 38.6973 31.5017H40.0334C40.7472 31.5017 41.3278 30.9112 41.3278 30.1854V19.1328L42.5135 18.8313C43.3887 18.6088 44 17.8126 44 16.8951V14.9405C44 14.0231 43.3887 13.227 42.5135 13.0044ZM6.67336 20.7162H5.9625C5.57109 20.7162 5.25266 20.3923 5.25266 19.9943V11.8415C5.25266 11.4434 5.57109 11.1196 5.9625 11.1196H6.67336C6.6732 11.1337 6.67227 11.1478 6.67227 11.162V20.6737C6.67227 20.688 6.67313 20.702 6.67336 20.7162ZM20.5575 39.0601H14.4884L11.4091 24.0283H17.4782L20.5575 39.0601ZM20.0334 22.7544H9.97078C8.84266 22.7544 7.92484 21.821 7.92484 20.6738V11.1621C7.92484 10.0148 8.84266 9.0814 9.97078 9.0814H20.0334V22.7544ZM37.4029 28.7764C35.2575 26.9836 32.6078 25.4854 29.6587 24.4056C26.7923 23.3563 23.7559 22.7544 21.3277 22.7544H21.286V9.0814H21.3277C23.7559 9.0814 26.7923 8.47956 29.6587 7.43023C32.6078 6.35048 35.2575 4.85234 37.4029 3.05942V28.7764ZM40.0752 30.1854C40.0752 30.2089 40.0565 30.2279 40.0334 30.2279H38.6973C38.6743 30.2279 38.6556 30.2089 38.6556 30.1854V1.65034C38.6556 1.62691 38.6743 1.60792 38.6973 1.60792H40.0334C40.0565 1.60792 40.0752 1.62691 40.0752 1.65034V30.1854ZM42.7474 16.8952C42.7474 17.227 42.5264 17.515 42.2098 17.5955L41.3277 17.8197V14.016L42.2098 14.2402C42.5263 14.3207 42.7474 14.6087 42.7474 14.9406V16.8952Z" fill="white"/>
</g>
<defs>
<filter id="filter0_d_2060_2217" x="0" y="0" width="48" height="48" filterUnits="userSpaceOnUse" color-interpolation-filters="sRGB">
<feFlood flood-opacity="0" result="BackgroundImageFix"/>
<feColorMatrix in="SourceAlpha" type="matrix" values="0 0 0 0 0 0 0 0 0 0 0 0 0 0 0 0 0 0 127 0" result="hardAlpha"/>
<feOffset dy="4"/>
<feGaussianBlur stdDeviation="2"/>
<feComposite in2="hardAlpha" operator="out"/>
<feColorMatrix type="matrix" values="0 0 0 0 0 0 0 0 0 0 0 0 0 0 0 0 0 0 0.25 0"/>
<feBlend mode="normal" in2="BackgroundImageFix" result="effect1_dropShadow_2060_2217"/>
<feBlend mode="normal" in="SourceGraphic" in2="effect1_dropShadow_2060_2217" result="shape"/>
</filter>
<clipPath id="clip0_2060_2217">
<rect width="40" height="40" fill="white" transform="translate(4)"/>
</clipPath>
</defs>
</svg>
