<svg width="30" height="30" viewBox="0 0 30 30" fill="none" xmlns="http://www.w3.org/2000/svg">
<path fill-rule="evenodd" clip-rule="evenodd" d="M19.6406 10.3594C19.2741 9.9938 18.6806 9.9938 18.315 10.3594L15 13.6781L11.685 10.3594C11.3194 9.9938 10.7259 9.9938 10.3594 10.3594C9.99375 10.725 9.99375 11.3156 10.3594 11.6812L13.6744 15L10.3594 18.3188C9.99375 18.6844 9.99375 19.275 10.3594 19.6406C10.7259 20.0062 11.3194 20.0062 11.685 19.6406L15 16.3219L18.315 19.6406C18.6806 20.0062 19.2741 20.0062 19.6406 19.6406C20.0062 19.275 20.0062 18.6844 19.6406 18.3188L16.3256 15L19.6406 11.6812C20.0062 11.3156 20.0062 10.725 19.6406 10.3594ZM28.125 26.25C28.125 27.2812 27.285 28.125 26.25 28.125H3.75C2.715 28.125 1.875 27.2812 1.875 26.25V3.75C1.875 2.71875 2.715 1.875 3.75 1.875H26.25C27.285 1.875 28.125 2.71875 28.125 3.75V26.25ZM26.25 0H3.75C1.67906 0 0 1.67812 0 3.75V26.25C0 28.3219 1.67906 30 3.75 30H26.25C28.3209 30 30 28.3219 30 26.25V3.75C30 1.67812 28.3209 0 26.25 0Z" fill="#FF0000" fill-opacity="0.7"/>
</svg>
