<svg width="40" height="40" viewBox="0 0 40 40" fill="none" xmlns="http://www.w3.org/2000/svg">
<path fill-rule="evenodd" clip-rule="evenodd" d="M20 0C25.5241 0 30.5241 2.23958 34.1406 5.85938C37.7604 9.47917 40 14.4792 40 20C40 25.5241 37.7604 30.5241 34.1406 34.1406C30.5208 37.7604 25.5208 40 20 40C14.4792 40 9.47591 37.7604 5.85938 34.1406C2.23958 30.5241 0 25.5241 0 20C0 14.4759 2.23958 9.47591 5.85938 5.85938C9.47591 2.23958 14.4759 0 20 0ZM25.0163 38.112L24.9772 38.0859L27.2201 30.5697L22.5944 25.4395L17.1419 25.3906L12.819 30.8008L14.987 38.0664L14.9382 38.099C16.5495 38.5482 18.2454 38.7891 20 38.7891C21.7383 38.7891 23.4212 38.5547 25.0163 38.112ZM3.97786 29.821L11.901 29.86L16.0417 24.6745L14.3294 19.4271L7.35677 16.3997L1.23047 20.8594C1.37695 24.1341 2.36328 27.1908 3.97786 29.821ZM5.45898 8.09896L7.86784 15.306L14.3717 18.1315L19.3978 14.235V6.81641L13.1868 2.48372C10.7389 3.4375 8.53841 4.88932 6.71224 6.71549C6.27279 7.15495 5.85286 7.61719 5.45898 8.09896ZM26.5951 2.39909L20.6055 6.76107V14.2253L25.3255 17.8743L32.0996 14.9707L34.4369 7.97526C34.0723 7.53581 33.6882 7.11589 33.2845 6.71224C31.4063 4.83398 29.1309 3.34961 26.5951 2.39909ZM38.7663 20.9505L38.7598 20.9538L32.2559 16.2174L25.8073 18.9811L23.8281 24.8503L28.2975 29.8079C28.3171 29.8275 28.3268 29.8503 28.3333 29.8763L36.0156 29.8405C37.6172 27.2298 38.6035 24.1992 38.7663 20.9505Z" fill="white"/>
</svg>
