<svg width="40" height="40" viewBox="0 0 40 40" fill="none" xmlns="http://www.w3.org/2000/svg">
<path d="M20.0156 20.2656H14.7969C13.9531 20.2656 13.2812 20.9375 13.2812 21.7813C13.2812 22.625 13.9531 23.2969 14.7969 23.2969H19.9844C20.8281 23.2969 21.5 22.625 21.5 21.7813C21.5312 20.9375 20.8594 20.2656 20.0156 20.2656ZM14.7969 14.7656H18.4687V11.7031H14.7969C13.9531 11.7031 13.2812 12.375 13.2812 13.2188C13.2812 14.0625 13.9531 14.7656 14.7969 14.7656ZM20.0156 24.5313H16.3437C15.5 24.5313 14.8281 25.2031 14.8281 26.0469C14.8281 26.8906 15.5 27.5625 16.3437 27.5625H20.0156C20.8594 27.5625 21.5312 26.8906 21.5312 26.0469C21.5312 25.2031 20.8594 24.5313 20.0156 24.5313ZM31.2969 15.3906L26.5781 10.6406C26.2969 10.3594 25.9062 10.1875 25.5156 10.1875H21.2187C20.375 10.1875 19.7031 10.8594 19.7031 11.7031V17.5156C19.7031 18.3594 20.375 19.0313 21.2187 19.0313C22.0625 19.0313 22.7344 18.3594 22.7344 17.5156V14.1563C22.7344 13.8125 23.0156 13.5313 23.3594 13.5313C23.7031 13.5313 23.9844 13.8125 23.9844 14.1563C23.9844 17.8594 27.0156 20.8594 30.6875 20.8594C31.0312 20.8594 31.3125 21.1406 31.3125 21.4844C31.3125 21.8281 31.0312 22.1094 30.6875 22.1094C27.7969 22.1094 25.2656 20.5625 23.8906 18.2344C23.6875 18.875 23.2969 19.4063 22.7656 19.8125C22.7656 19.8125 22.7656 25.2344 22.7656 26.0781C22.7656 26.6406 22.5625 27.1719 22.3125 27.5938H26.75C28.625 27.5938 30.3125 26.6094 31.3281 25.1563H39.8594V15.3906H31.2969ZM14.7969 19.0313H18.9219C18.6094 18.6094 18.4687 18.0469 18.4687 17.5156V16H14.7969C13.9531 16 13.2812 16.6719 13.2812 17.5156C13.2656 18.3594 13.9531 19.0313 14.7969 19.0313ZM2.79687 26.2344C2.64062 25.9375 2.76562 25.5625 3.06249 25.4063L9.45312 22.125C9.74999 21.9688 10.125 22.0938 10.2812 22.3906C10.4375 22.6875 10.3125 23.0625 10.0156 23.2188L3.62499 26.5C3.32812 26.6563 2.95312 26.5313 2.79687 26.2344ZM0.421865 10.9844C0.328115 10.8125 0.31249 10.5938 0.421865 10.375C0.578115 10.0781 0.96874 9.96875 1.23437 10.1094L8.95312 14.3906C9.24999 14.5469 9.35937 14.9375 9.21874 15.2031C9.06249 15.5 8.67187 15.6094 8.40624 15.4688L0.68749 11.2344C0.56249 11.1875 0.484365 11.0781 0.421865 10.9844ZM9.37499 34.0625C9.31249 33.9375 9.28124 33.7656 9.35937 33.5938L11.5312 26.7656C11.6406 26.4219 11.9687 26.2656 12.2812 26.375C12.625 26.4844 12.7812 26.8125 12.6719 27.125L10.4687 33.9844C10.3594 34.3281 10.0312 34.4844 9.71874 34.375C9.56249 34.3125 9.45312 34.2188 9.37499 34.0625ZM2.84374 18.2656C2.79687 18.1719 2.74999 18.0313 2.78124 17.8906C2.85937 17.5313 3.15624 17.3281 3.48437 17.4063L7.96874 18.125C8.32812 18.2031 8.53124 18.5 8.45312 18.8281C8.37499 19.1563 8.07811 19.3906 7.74999 19.3125L3.26562 18.5938C3.07812 18.5469 2.92187 18.4219 2.84374 18.2656ZM10.3125 12.7813L7.01562 6.35938C6.85937 6.0625 6.98436 5.6875 7.28124 5.53125C7.57811 5.375 7.96874 5.5 8.12499 5.79688L11.4219 12.2188C11.5781 12.5156 11.4531 12.8906 11.1562 13.0469C10.8437 13.1875 10.4687 13.0781 10.3125 12.7813Z" fill="white"/>
</svg>
