<svg width="19" height="19" viewBox="0 0 19 19" fill="none" xmlns="http://www.w3.org/2000/svg">
<path d="M6.2233 8.72065C6.0417 8.39389 5.75674 8.13668 5.41313 7.98939C5.06953 7.84211 4.68675 7.81309 4.32487 7.90689C3.96299 8.00069 3.6425 8.212 3.41372 8.50766C3.18493 8.80331 3.06079 9.16657 3.06079 9.5404C3.06079 9.91424 3.18493 10.2775 3.41372 10.5732C3.6425 10.8688 3.96299 11.0801 4.32487 11.1739C4.68675 11.2677 5.06953 11.2387 5.41313 11.0914C5.75674 10.9441 6.0417 10.6869 6.2233 10.3602M6.2233 8.72065C6.3583 8.96365 6.43555 9.24265 6.43555 9.5404C6.43555 9.83815 6.3583 10.1179 6.2233 10.3602M6.2233 8.72065L13.3978 4.73515M6.2233 10.3602L13.3978 14.3457M13.3978 4.73515C13.503 4.93326 13.6466 5.1084 13.8203 5.25035C13.994 5.3923 14.1942 5.4982 14.4093 5.56186C14.6243 5.62552 14.8499 5.64567 15.0729 5.62112C15.2959 5.59658 15.5117 5.52783 15.7077 5.4189C15.9038 5.30997 16.0762 5.16305 16.2148 4.98671C16.3535 4.81038 16.4555 4.60819 16.5151 4.39194C16.5747 4.1757 16.5906 3.94975 16.5618 3.7273C16.533 3.50485 16.4602 3.29037 16.3476 3.0964C16.1256 2.71416 15.7625 2.43426 15.3364 2.31686C14.9103 2.19947 14.4551 2.25396 14.0687 2.46862C13.6823 2.68328 13.3956 3.04097 13.2701 3.4648C13.1447 3.88863 13.1905 4.34477 13.3978 4.73515ZM13.3978 14.3457C13.2902 14.5394 13.2217 14.7525 13.1964 14.9728C13.1711 15.193 13.1895 15.416 13.2504 15.6292C13.3113 15.8423 13.4135 16.0414 13.5514 16.215C13.6892 16.3886 13.8599 16.5334 14.0537 16.641C14.2475 16.7487 14.4605 16.8171 14.6808 16.8424C14.901 16.8677 15.1241 16.8494 15.3372 16.7885C15.5503 16.7276 15.7494 16.6253 15.923 16.4875C16.0966 16.3496 16.2414 16.1789 16.3491 15.9852C16.5665 15.5938 16.6195 15.1321 16.4965 14.7016C16.3735 14.2712 16.0845 13.9072 15.6932 13.6898C15.3018 13.4724 14.8401 13.4193 14.4097 13.5423C13.9792 13.6653 13.6152 13.9543 13.3978 14.3457Z" stroke="white" stroke-width="1.5" stroke-linecap="round" stroke-linejoin="round"/>
</svg>
