<svg width="40" height="40" viewBox="0 0 40 40" fill="none" xmlns="http://www.w3.org/2000/svg">
<path d="M19.9992 0C8.95378 0 0 8.95454 0 20C0 31.0455 8.95378 40 19.9992 40C31.0447 40 40 31.0455 40 20C40 8.95454 31.0447 0 19.9992 0ZM19.9992 34.9364C11.7503 34.9364 5.06285 28.2482 5.06285 20C5.06285 11.751 11.7503 5.06361 19.9992 5.06361C28.2482 5.06361 34.9372 11.751 34.9372 20C34.9372 28.2482 28.2482 34.9364 19.9992 34.9364Z" fill="white"/>
<path d="M20 8.92419C13.883 8.92419 8.92419 13.883 8.92419 20C8.92419 26.1171 13.883 31.0759 20 31.0759C26.1171 31.0759 31.0759 26.1171 31.0759 20C31.0759 13.883 26.1171 8.92419 20 8.92419ZM20 28.2725C15.4309 28.2725 11.7275 24.5684 11.7275 20C11.7275 15.4316 15.4309 11.7283 20 11.7283C24.5684 11.7283 28.2725 15.4316 28.2725 20C28.2725 24.5684 24.5684 28.2725 20 28.2725Z" fill="white"/>
<path d="M20 23.2279C21.7827 23.2279 23.2279 21.7827 23.2279 20C23.2279 18.2173 21.7827 16.7721 20 16.7721C18.2173 16.7721 16.7721 18.2173 16.7721 20C16.7721 21.7827 18.2173 23.2279 20 23.2279Z" fill="white"/>
</svg>
