<svg width="42" height="42" viewBox="0 0 42 42" fill="none" xmlns="http://www.w3.org/2000/svg">
<path d="M26.6054 9.19424C26.6054 8.43611 27.0023 7.75059 27.4611 7.14621C27.9326 6.52689 28.2057 5.79225 28.2057 5.00422C28.2057 2.79176 26.057 1 23.4047 1C20.7524 1 18.6037 2.79389 18.6037 5.00422C18.6037 5.79225 18.8768 6.52689 19.3484 7.14621C19.8072 7.75059 20.2041 8.43611 20.2041 9.19424C20.205 9.37736 20.1691 9.5588 20.0986 9.72779C20.0281 9.89677 19.9244 10.0499 19.7936 10.1779C19.6629 10.306 19.5077 10.4065 19.3374 10.4734C19.1671 10.5403 18.9851 10.5723 18.8022 10.5674C15.8334 10.4818 12.8696 10.2681 9.91922 9.92675C10.3161 13.3714 10.5444 16.8674 10.5914 20.4061C10.5933 20.5917 10.5585 20.7758 10.4887 20.9478C10.419 21.1197 10.3158 21.2761 10.1852 21.4079C10.0546 21.5396 9.89908 21.6441 9.72778 21.7151C9.55648 21.7862 9.37277 21.8225 9.18733 21.822C8.42984 21.822 7.74489 21.4247 7.14103 20.9656C6.52943 20.4875 5.7769 20.2254 5.00085 20.2203C2.79024 20.2203 1 22.3708 1 25.0253C1 27.6799 2.79238 29.8304 5.00085 29.8304C5.78821 29.8304 6.52223 29.557 7.14103 29.0851C7.74489 28.6259 8.42984 28.2287 9.18733 28.2287C9.8488 28.2287 10.3716 28.784 10.3225 29.446C10.0571 33.0669 9.59982 36.6711 8.95261 40.2435C12.1917 40.6493 15.4777 40.9034 18.8022 40.9995C18.9851 41.0044 19.1671 40.9724 19.3374 40.9055C19.5077 40.8386 19.6629 40.7381 19.7936 40.61C19.9244 40.4819 20.0281 40.3289 20.0986 40.1599C20.1691 39.9909 20.205 39.8095 20.2041 39.6263C20.2041 38.8682 19.8072 38.1827 19.3484 37.5783C18.8707 36.9662 18.6088 36.213 18.6037 35.4363C18.6037 33.226 20.7546 31.4321 23.4047 31.4321C26.057 31.4321 28.2057 33.226 28.2057 35.4363C28.2057 36.2243 27.9326 36.959 27.4611 37.5783C27.0023 38.1827 26.6075 38.8682 26.6075 39.6263C26.6075 40.3375 27.1986 40.9056 27.9092 40.865C31.7915 40.6364 35.6578 40.1873 39.4892 39.5196C40.0689 36.1843 40.4834 32.8223 40.7311 29.446C40.7422 29.2899 40.7211 29.1332 40.6689 28.9858C40.6167 28.8383 40.5347 28.7031 40.4279 28.5889C40.3212 28.4746 40.192 28.3836 40.0484 28.3216C39.9049 28.2597 39.7501 28.228 39.5938 28.2287C38.8363 28.2287 38.1513 28.6259 37.5475 29.0851C36.9287 29.557 36.1946 29.8304 35.4073 29.8304C33.1988 29.8304 31.4064 27.6799 31.4064 25.0253C31.4064 22.3708 33.1988 20.2203 35.4073 20.2203C36.1968 20.2203 36.9287 20.4936 37.5475 20.9656C38.1513 21.4247 38.8363 21.822 39.5959 21.822C39.7813 21.8225 39.965 21.7862 40.1363 21.7151C40.3076 21.6441 40.4631 21.5396 40.5938 21.4079C40.7244 21.2761 40.8276 21.1197 40.8973 20.9478C40.967 20.7758 41.0019 20.5917 40.9999 20.4061C40.9486 16.5788 40.685 12.7573 40.2104 8.95933C36.1861 9.6897 32.0807 10.1852 27.907 10.4307C27.739 10.4401 27.5709 10.4149 27.413 10.3568C27.2551 10.2987 27.1108 10.2088 26.9889 10.0928C26.867 9.9768 26.7701 9.83704 26.7041 9.68214C26.6382 9.52724 26.6046 9.36261 26.6054 9.19424Z" stroke="white" stroke-width="1.5" stroke-linecap="round" stroke-linejoin="round"/>
</svg>
