<svg width="40" height="40" viewBox="0 0 40 40" fill="none" xmlns="http://www.w3.org/2000/svg">
<path d="M35.155 30.2286C34.9221 29.5348 34.6599 28.7844 34.3746 27.9934C32.4193 22.5637 32.0075 16.7367 33.1788 11.1177C35.3205 9.63622 36.5874 7.30435 36.5874 4.80728L36.5826 0H34.6948V1.82842H32.8481V0H30.9604V1.82842H29.1138V0H27.2261V1.82842H25.3794V0H23.4916V1.82842H21.645V0H19.7572L19.7427 4.80742C19.7427 7.30435 21.0095 9.63622 23.1513 11.1179C24.3227 16.7377 23.9104 22.5646 21.9537 27.9943C21.6646 28.7995 21.403 29.5496 21.1751 30.2286C20.698 30.5547 20.2477 30.9139 19.8281 31.3026C19.2494 30.7753 18.6097 30.3003 17.9139 29.8901C17.2028 27.3033 16.7796 24.651 16.6533 21.9916C16.6427 21.7688 16.6224 21.1326 16.6224 21.1326C18.2197 19.8139 19.1265 17.9464 19.1265 15.9415V15.0614H17.7793C18.2789 14.1596 18.546 13.152 18.546 12.1237C18.546 8.5948 15.4672 5.72386 11.6828 5.72386C7.89826 5.72386 4.81946 8.5948 4.81946 12.1237C4.81946 13.152 5.08651 14.1597 5.58619 15.0614H4.2389V15.9415C4.2389 17.956 5.15258 19.8294 6.76226 21.1487C6.69285 24.0861 6.26143 27.0192 5.47917 29.8737C2.08947 31.859 0 35.3623 0 39.1062V40H40V39.1335C40 35.6137 38.1949 32.3078 35.155 30.2286ZM21.6306 4.80742V3.58874H34.6997V4.80742C34.6997 6.755 33.7037 8.57164 32.0251 9.72086H24.3054C22.6266 8.57164 21.6306 6.755 21.6306 4.80742ZM25.1417 11.4812H31.1886C30.1296 17.1813 30.6071 23.0609 32.5854 28.5543C32.7521 29.0166 32.9103 29.4634 33.0594 29.8938H23.2708C23.4182 29.4682 23.5762 29.0208 23.7437 28.554C25.7227 23.0619 26.2007 17.1823 25.1417 11.4812ZM8.63667 21.6211H14.7501C14.8448 24.29 15.2248 26.9546 15.8837 29.5615H7.50488C8.16284 26.9549 8.54257 24.2912 8.63667 21.6211ZM6.70752 12.1235C6.70752 9.56527 8.93958 7.48404 11.6831 7.48404C14.4266 7.48404 16.6585 9.56527 16.6585 12.1235C16.6585 13.1954 16.2583 14.2359 15.5317 15.0612H7.83437C7.10773 14.2359 6.70752 13.1954 6.70752 12.1235ZM6.20639 16.8217H17.1595C16.9444 17.9992 16.2995 19.0677 15.3134 19.8608H8.05277C7.06634 19.0676 6.42131 17.9997 6.20639 16.8217ZM6.5581 31.3218H16.8071C19.4241 32.8237 21.1354 35.3999 21.4321 38.226H1.9338C2.23018 35.3985 3.94064 32.8242 6.5581 31.3218ZM23.3283 38.2534C23.1539 36.205 22.3572 34.2592 21.0717 32.634C21.4472 32.2776 21.8523 31.9495 22.2839 31.654H34.0406C36.3386 33.2275 37.7989 35.6321 38.0672 38.2532L23.3283 38.2534Z" fill="white"/>
</svg>
