<svg width="51" height="51" viewBox="0 0 51 51" fill="none" xmlns="http://www.w3.org/2000/svg">
<path d="M4.83594 6.31726H7.76354C8.8408 6.31726 9.78076 7.03239 10.0596 8.05817L10.8686 11.0542M10.8686 11.0542C22.6353 10.7287 34.3907 12.0198 45.7971 14.8905C44.0566 20.0069 41.9886 24.9773 39.6208 29.7726H15.9254M10.8686 11.0542L15.9254 29.7726M15.9254 29.7726C14.2447 29.7726 12.6329 30.4316 11.4446 31.6046C10.2562 32.7776 9.58854 34.3685 9.58854 36.0274H42.8568M12.7569 42.2822C12.7569 42.6969 12.59 43.0946 12.2929 43.3879C11.9958 43.6811 11.5929 43.8458 11.1727 43.8458C10.7526 43.8458 10.3496 43.6811 10.0525 43.3879C9.75545 43.0946 9.58854 42.6969 9.58854 42.2822C9.58854 41.8674 9.75545 41.4697 10.0525 41.1765C10.3496 40.8832 10.7526 40.7185 11.1727 40.7185C11.5929 40.7185 11.9958 40.8832 12.2929 41.1765C12.59 41.4697 12.7569 41.8674 12.7569 42.2822ZM39.6884 42.2822C39.6884 42.6969 39.5215 43.0946 39.2244 43.3879C38.9273 43.6811 38.5243 43.8458 38.1042 43.8458C37.684 43.8458 37.2811 43.6811 36.984 43.3879C36.6869 43.0946 36.52 42.6969 36.52 42.2822C36.52 41.8674 36.6869 41.4697 36.984 41.1765C37.2811 40.8832 37.684 40.7185 38.1042 40.7185C38.5243 40.7185 38.9273 40.8832 39.2244 41.1765C39.5215 41.4697 39.6884 41.8674 39.6884 42.2822Z" stroke="white" stroke-width="1.5" stroke-linecap="round" stroke-linejoin="round"/>
</svg>
