<svg width="51" height="51" viewBox="0 0 51 51" fill="none" xmlns="http://www.w3.org/2000/svg">
<path d="M37.9828 39.1026C36.5069 37.1738 34.5974 35.6096 32.4047 34.5333C30.212 33.4569 27.7961 32.8978 25.3473 32.9C22.8984 32.8978 20.4825 33.4569 18.2898 34.5333C16.0971 35.6096 14.1876 37.1738 12.7117 39.1026M37.9828 39.1026C40.8629 36.574 42.8941 33.241 43.8109 29.5455C44.7278 25.8501 44.4849 21.9669 43.1145 18.4108C41.7441 14.8547 39.3108 11.7939 36.1375 9.63415C32.9642 7.47442 29.2007 6.31787 25.3462 6.31787C21.4917 6.31787 17.7282 7.47442 14.5549 9.63415C11.3815 11.7939 8.94833 14.8547 7.5779 18.4108C6.20748 21.9669 5.96459 25.8501 6.88146 29.5455C7.79832 33.241 9.83162 36.574 12.7117 39.1026M37.9828 39.1026C34.5061 42.1637 30.0061 43.8524 25.3473 43.8458C20.6877 43.8529 16.189 42.1642 12.7117 39.1026M31.684 20.3905C31.684 22.0493 31.0164 23.6403 29.828 24.8133C28.6397 25.9863 27.0279 26.6452 25.3473 26.6452C23.6666 26.6452 22.0548 25.9863 20.8665 24.8133C19.6781 23.6403 19.0105 22.0493 19.0105 20.3905C19.0105 18.7316 19.6781 17.1407 20.8665 15.9677C22.0548 14.7947 23.6666 14.1357 25.3473 14.1357C27.0279 14.1357 28.6397 14.7947 29.828 15.9677C31.0164 17.1407 31.684 18.7316 31.684 20.3905Z" stroke="white" stroke-width="1.5" stroke-linecap="round" stroke-linejoin="round"/>
</svg>
