<svg width="40" height="40" viewBox="0 0 40 40" fill="none" xmlns="http://www.w3.org/2000/svg">
<path d="M22.825 37.5L21.5 35.575C22.2225 34.6297 22.5529 33.4423 22.4225 32.2597C22.2921 31.0771 21.711 29.9902 20.8 29.225C19.2686 27.9452 18.2192 26.1815 17.825 24.225C13.925 29.8 15.95 32.875 17.825 35.6L16.45 37.5C13.839 37.008 11.4943 35.5877 9.8491 33.5014C8.20393 31.415 7.3695 28.8037 7.49998 26.15C7.49998 26.15 6.97498 20.75 13.2 15.475C13.2 15.475 20.25 8.95 17.8 4.125L19.575 2.5C22.283 4.39881 24.3546 7.07091 25.5188 10.1666C26.6831 13.2623 26.8856 16.6373 26.1 19.85C26.6928 19.2716 27.1682 18.5839 27.5 17.825L29.675 17.65C29.85 17.95 34.275 24.975 31.9 30.9C31.0541 32.667 29.7815 34.1955 28.1972 35.3478C26.6129 36.5 24.7666 37.2397 22.825 37.5ZM17.825 20.125L20 21.1C19.884 22.2405 20.031 23.3924 20.4298 24.4672C20.8285 25.542 21.4683 26.5111 22.3 27.3C23.3716 28.0807 24.1832 29.166 24.6291 30.4146C25.075 31.6632 25.1346 33.0171 24.8 34.3C25.8333 33.938 26.7825 33.3703 27.5903 32.6313C28.3981 31.8922 29.0477 30.9971 29.5 30C30.3488 26.9566 29.9812 23.7024 28.475 20.925C28.0015 21.693 27.3137 22.3057 26.4964 22.6877C25.6791 23.0697 24.7679 23.2043 23.875 23.075L23 21.375C24.095 19.0069 24.468 16.3686 24.0723 13.7897C23.6766 11.2109 22.5297 8.80581 20.775 6.875C20.425 12.175 15 17.075 14.825 17.35C9.64998 21.75 9.99998 25.825 9.99998 26C9.90235 27.544 10.2194 29.0861 10.9183 30.4664C11.6173 31.8466 12.6726 33.0149 13.975 33.85C12.5 30.35 12.5 26.15 17.9 20.125H17.825Z" fill="white"/>
</svg>
